<svg width="45" height="47" viewBox="0 0 45 47" fill="none" xmlns="http://www.w3.org/2000/svg">
<path d="M23.8215 41.4009V46.3097H28.7303L40.7014 34.3386L35.7925 29.4298L23.8215 41.4009Z" fill="white"/>
<path d="M37.7144 13.8929L23.8215 0H5.2976C2.75056 0 0.689781 2.08394 0.689781 4.63097L0.666626 41.6787C0.666626 44.2258 2.72741 46.3097 5.27444 46.3097H19.1905V39.479L37.7144 20.9551V13.8929ZM21.506 16.2084V3.47323L34.2412 16.2084H21.506Z" fill="white"/>
<path d="M43.9893 27.7858L42.3453 26.1418C41.4423 25.2388 39.9835 25.2388 39.0805 26.1418L37.4365 27.7858L42.3453 32.6947L43.9893 31.0507C44.8924 30.1476 44.8924 28.6889 43.9893 27.7858Z" fill="white"/>
</svg>
