<svg width="92" height="46" viewBox="0 0 92 46" fill="none" xmlns="http://www.w3.org/2000/svg">
<path d="M23.6487 11.9103H11.6V45H23.6487V11.9103Z" fill="white" stroke="white" stroke-miterlimit="10"/>
<path d="M26.0494 38.9907C26.0494 38.9907 33.2294 38.9104 36.2894 38.9104C39.5756 38.9104 41.3178 37.5321 41.3178 35.4279C41.3178 33.4645 39.8083 32.3076 36.0198 30.9589C30.7406 29.0672 27.2906 26.1607 27.2906 21.4907C27.2906 16.0396 31.8207 11.8948 39.2606 11.8948C42.869 11.8948 50.2462 11.8972 50.2462 11.8972C50.2462 11.8972 48.2508 13.4397 48.6648 17.6944C48.2506 17.7105 42.2267 17.783 39.1544 17.783C36.082 17.783 34.5513 19.2399 34.5513 20.875C34.5513 22.9056 36.3043 23.8036 40.4091 25.3698C46.012 27.4856 48.6062 30.4235 48.6062 34.9433C48.6062 40.2814 44.5606 44.8622 35.8492 44.8622C32.2627 44.8622 26.0546 44.8522 26.0546 44.8522L26.0494 38.9907Z" fill="white"/>
<path d="M66.7217 40.3501C60.1518 40.3501 54.8259 34.9693 54.8259 28.3316C54.8259 21.6939 60.1518 16.3131 66.7217 16.3131C71.7777 16.3131 76.0968 19.4999 77.8189 23.9937H82.4494C80.5651 17.0036 74.2374 11.864 66.7215 11.864C57.7196 11.864 50.422 19.2369 50.422 28.3316C50.422 37.4263 57.7196 44.7992 66.7215 44.7992C73.9962 44.7992 80.1574 39.9843 82.2543 33.3368H77.5398C75.6608 37.4755 71.5235 40.3501 66.7217 40.3501Z" fill="white"/>
<path d="M62.3691 27.1888C60.2419 29.6269 59.4941 32.876 60.1221 35.8849C61.811 37.459 64.0285 38.4626 66.4755 38.5929C66.117 38.3152 65.7737 38.0131 65.4486 37.686C63.4807 35.7077 62.3878 33.0752 62.3695 30.272H62.3693V27.1888H62.3691Z" fill="white"/>
<path d="M69.3335 23.2356L69.3325 23.2346L69.3335 23.2356ZM66.6274 18.0513C64.1844 18.145 61.9622 19.1084 60.255 20.6442C60.6906 20.5878 61.1324 20.5581 61.5786 20.5569C61.5874 20.5569 61.5963 20.5569 61.6051 20.5569C64.376 20.5569 66.9769 21.6571 68.9465 23.6263L71.1144 25.8165C70.9178 22.5701 69.176 19.7346 66.6274 18.0513Z" fill="white"/>
<path d="M67.6001 18.06C67.9491 18.3321 68.2837 18.628 68.6013 18.9472C70.5723 20.9288 71.6658 23.5669 71.6806 26.3752L71.6712 29.4575C73.797 27.0206 74.5454 23.7742 73.9192 20.7666C72.2382 19.1998 70.0337 18.198 67.6003 18.0598L67.6001 18.06Z" fill="white"/>
<path d="M62.937 30.8457C63.143 34.0905 64.8924 36.922 67.4466 38.5982C69.8971 38.4961 72.124 37.5188 73.8291 35.9671C73.3801 36.0271 72.9246 36.0587 72.4641 36.0599H72.4376C69.6748 36.0599 67.0732 34.9826 65.1055 33.0244L62.937 30.8457Z" fill="white"/>
<path d="M74.601 21.4657C74.6582 21.9111 74.6883 22.3626 74.6893 22.8188C74.6961 25.6268 73.6241 28.272 71.671 30.268L69.5147 32.4502C72.7256 32.2435 75.528 30.4781 77.1881 27.8994C77.0884 25.4308 76.1279 23.1868 74.601 21.4657Z" fill="white"/>
<path d="M61.6057 21.1195C60.9193 21.1195 60.2333 21.1906 59.5591 21.3332C57.9939 23.0372 56.9933 25.2779 56.8587 27.7519C57.1285 27.3988 57.4215 27.0603 57.7379 26.739C59.6992 24.7476 62.3104 23.6446 65.0901 23.6299L65.0935 23.6265H68.1718C66.3056 21.9548 63.9556 21.1195 61.6057 21.1195Z" fill="white"/>
<path d="M77.1825 28.8809C76.9088 29.241 76.611 29.5858 76.2888 29.9129C74.3299 31.9017 71.7228 33.0063 68.947 33.0238L65.9093 33.0244C67.7695 34.6736 70.1036 35.4976 72.4376 35.4976C73.1355 35.4976 73.8335 35.4239 74.5189 35.2764C76.0663 33.5735 77.0527 31.3422 77.1823 28.8809H77.1825Z" fill="white"/>
<path d="M64.5251 24.2008C61.3168 24.403 58.5152 26.1615 56.8514 28.733C56.9471 31.209 57.9088 33.4601 59.4397 35.1856C59.382 34.7387 59.3517 34.2855 59.3505 33.8274C59.3438 31.0181 60.4167 28.3715 62.372 26.3752L64.5251 24.2008Z" fill="white"/>
<path d="M67.0197 31.4521C68.7293 31.4521 70.1152 30.052 70.1152 28.3248C70.1152 26.5975 68.7293 25.1974 67.0197 25.1974C65.3102 25.1974 63.9243 26.5975 63.9243 28.3248C63.9243 30.052 65.3102 31.4521 67.0197 31.4521Z" fill="#C1272D"/>
<path d="M4.19294 0L0.101074 9.79406H86.9596L91.1011 0H4.19294Z" fill="white"/>
</svg>
