<svg width="45" height="49" viewBox="0 0 45 49" fill="none" xmlns="http://www.w3.org/2000/svg">
<path d="M20.3056 48.6083V26.2417L0.75 14.9361V34.5528C0.75 35.4491 0.963889 36.2639 1.39167 36.9972C1.81944 37.7306 2.42037 38.3213 3.19444 38.7694L20.3056 48.6083ZM25.1944 48.6083L42.3056 38.7694C43.0796 38.3213 43.6806 37.7306 44.1083 36.9972C44.5361 36.2639 44.75 35.4491 44.75 34.5528V14.9361L25.1944 26.2417V48.6083ZM34.9111 14.9972L42.1222 10.7806L25.1944 1.06388C24.4204 0.615737 23.6056 0.391663 22.75 0.391663C21.8944 0.391663 21.0796 0.615737 20.3056 1.06388L15.4778 3.81388L34.9111 14.9972ZM22.75 22.025L30.0222 17.8694L10.65 6.625L3.31667 10.8417L22.75 22.025Z" fill="white"/>
</svg>
