<svg width="45" height="44" viewBox="0 0 45 44" fill="none" xmlns="http://www.w3.org/2000/svg">
<path d="M14.0333 35.2C12.8233 35.2 11.7874 34.7692 10.9258 33.9075C10.0641 33.0458 9.63325 32.01 9.63325 30.8V4.4C9.63325 3.19 10.0641 2.15417 10.9258 1.2925C11.7874 0.430833 12.8233 0 14.0333 0H40.4333C41.6433 0 42.6791 0.430833 43.5408 1.2925C44.4024 2.15417 44.8333 3.19 44.8333 4.4V30.8C44.8333 32.01 44.4024 33.0458 43.5408 33.9075C42.6791 34.7692 41.6433 35.2 40.4333 35.2H14.0333ZM5.23325 44C4.02325 44 2.98742 43.5692 2.12575 42.7075C1.26409 41.8458 0.833252 40.81 0.833252 39.6V11C0.833252 10.3767 1.04409 9.85417 1.46575 9.4325C1.88742 9.01083 2.40992 8.8 3.03325 8.8C3.65659 8.8 4.17909 9.01083 4.60075 9.4325C5.02242 9.85417 5.23325 10.3767 5.23325 11V39.6H33.8333C34.4566 39.6 34.9791 39.8108 35.4008 40.2325C35.8224 40.6542 36.0333 41.1767 36.0333 41.8C36.0333 42.4233 35.8224 42.9458 35.4008 43.3675C34.9791 43.7892 34.4566 44 33.8333 44H5.23325ZM14.0333 8.8H40.4333V4.4H14.0333V8.8Z" fill="white"/>
</svg>
