<svg width="45" height="37" viewBox="0 0 45 37" fill="none" xmlns="http://www.w3.org/2000/svg">
<path d="M4.58329 7.5H0.916626V16.6667H0.934959L0.916626 33.1667C0.916626 35.1833 2.56663 36.8333 4.58329 36.8333H37.5833V33.1667H4.58329V7.5ZM41.25 3.83334H26.5833L22.9166 0.166672H11.9166C9.89996 0.166672 8.26829 1.81667 8.26829 3.83334L8.24996 25.8333C8.24996 27.85 9.89996 29.5 11.9166 29.5H41.25C43.2666 29.5 44.9166 27.85 44.9166 25.8333V7.5C44.9166 5.48334 43.2666 3.83334 41.25 3.83334ZM13.75 24L22 13L28.4166 21.2683L33 15.75L39.4166 24H13.75Z" fill="white"/>
</svg>
